<mxfile host="app.diagrams.net" modified="2022-11-04T01:05:47.335Z" agent="5.0 (Windows NT 10.0; Win64; x64) AppleWebKit/537.36 (KHTML, like Gecko) Chrome/83.0.4103.61 Safari/537.36" etag="SR7k24-y6idN2-l-Dvuy" version="20.4.0" type="github">
  <diagram id="SX2FN2Awdvvpl60pFksU" name="第 1 页">
    <mxGraphModel dx="412" dy="580" grid="1" gridSize="10" guides="1" tooltips="1" connect="1" arrows="1" fold="1" page="1" pageScale="1" pageWidth="827" pageHeight="1169" math="0" shadow="0">
      <root>
        <mxCell id="0" />
        <mxCell id="1" parent="0" />
        <mxCell id="y6s1CkAqr-deKb7TeIjm-3" value="" style="edgeStyle=orthogonalEdgeStyle;rounded=0;orthogonalLoop=1;jettySize=auto;html=1;" parent="1" source="y6s1CkAqr-deKb7TeIjm-1" target="y6s1CkAqr-deKb7TeIjm-2" edge="1">
          <mxGeometry relative="1" as="geometry" />
        </mxCell>
        <mxCell id="y6s1CkAqr-deKb7TeIjm-1" value="校长" style="rounded=0;whiteSpace=wrap;html=1;" parent="1" vertex="1">
          <mxGeometry x="100" y="40" width="120" height="60" as="geometry" />
        </mxCell>
        <mxCell id="zVNJmhK3RG6f0hMiuWJ5-2" value="" style="edgeStyle=orthogonalEdgeStyle;rounded=0;orthogonalLoop=1;jettySize=auto;html=1;" edge="1" parent="1" source="y6s1CkAqr-deKb7TeIjm-2" target="zVNJmhK3RG6f0hMiuWJ5-1">
          <mxGeometry relative="1" as="geometry" />
        </mxCell>
        <mxCell id="y6s1CkAqr-deKb7TeIjm-2" value="主任" style="rounded=0;whiteSpace=wrap;html=1;" parent="1" vertex="1">
          <mxGeometry x="100" y="160" width="120" height="60" as="geometry" />
        </mxCell>
        <mxCell id="zVNJmhK3RG6f0hMiuWJ5-1" value="老师" style="rounded=0;whiteSpace=wrap;html=1;" vertex="1" parent="1">
          <mxGeometry x="100" y="300" width="120" height="60" as="geometry" />
        </mxCell>
      </root>
    </mxGraphModel>
  </diagram>
</mxfile>
